<?xml version="1.0" encoding="UTF-8" standalone="no"?>
<!DOCTYPE svg PUBLIC "-//W3C//DTD SVG 1.1//EN" "http://www.w3.org/Graphics/SVG/1.1/DTD/svg11.dtd">
<svg width="100%" height="100%" viewBox="0 0 100 100" version="1.1" xmlns="http://www.w3.org/2000/svg" xmlns:xlink="http://www.w3.org/1999/xlink" xml:space="preserve" xmlns:serif="http://www.serif.com/" style="fill-rule:evenodd;clip-rule:evenodd;stroke-linejoin:round;stroke-miterlimit:2;">
    <g transform="matrix(0.118838,0,0,0.118838,-87.8523,-35.5434)">
        <path d="M1020.41,1088.66L986,1088.66C986,1088.66 986,1088.66 986,1088.66C987.499,1073.06 992.945,1058.77 1001.24,1046.85C936.063,1025.4 889,964.023 889,891.654L889,811.829C882.526,829.315 877.538,848.276 874.407,868.28C865.582,924.672 873.343,977.681 892.734,1015.63C889.131,1015.6 885.529,1015.3 881.931,1014.74C818.134,1004.75 779.364,913.422 795.407,810.909C807.136,735.963 844.938,675.657 889.351,652.545C896.58,453.904 1015.08,351 1160,351C1304.92,351 1423.42,453.904 1430.65,652.545C1475.06,675.657 1512.86,735.963 1524.59,810.909C1540.64,913.422 1501.87,1004.75 1438.07,1014.74C1434.47,1015.3 1430.87,1015.6 1427.27,1015.63C1446.66,977.681 1454.42,924.672 1445.59,868.28C1442.46,848.276 1437.47,829.315 1431,811.829L1431,891.654C1431,964.023 1383.94,1025.4 1318.76,1046.85C1327.06,1058.77 1332.5,1073.06 1334,1088.66C1334,1088.66 1334,1088.66 1334,1088.66L1299.59,1088.66C1294.9,1069.12 1286.21,1056 1276.29,1056C1278.77,1064.54 1280.99,1075.82 1282.47,1088.66L1218.95,1088.66C1220.72,1073.33 1223.79,1059.85 1227.29,1050C1213.95,1050 1202.44,1065.86 1197.25,1088.66L1170,1088.66C1170,1088.66 1170,1088.66 1170,1088.66C1171.17,1076.47 1174.75,1065.09 1180.22,1055L1139.78,1055C1145.25,1065.09 1148.83,1076.47 1150,1088.66C1150,1088.66 1150,1088.66 1150,1088.66L1122.76,1088.66C1117.56,1065.86 1106.05,1050 1092.71,1050C1096.21,1059.85 1099.28,1073.33 1101.05,1088.66L1037.53,1088.66C1039.01,1075.82 1041.23,1064.54 1043.71,1056C1033.79,1056 1025.1,1069.12 1020.41,1088.66ZM1298.92,1026.61C1312.77,1020.96 1325.51,1012.58 1336.29,1001.79C1357.55,980.526 1369.5,951.686 1369.5,921.614L1369.5,803.325C1369.5,784.342 1361.96,766.137 1348.54,752.714C1335.11,739.291 1316.91,731.75 1297.92,731.75L1022.08,731.75C1003.09,731.75 984.887,739.291 971.464,752.714C958.041,766.137 950.5,784.342 950.5,803.325L950.5,921.614C950.5,951.686 962.446,980.526 983.71,1001.79C994.495,1012.58 1007.23,1020.96 1021.08,1026.61C1034.44,1016.96 1050.64,1011.34 1068,1011.34C1089.9,1011.34 1109.96,1020.29 1124.81,1035L1195.19,1035C1210.04,1020.29 1230.1,1011.34 1252,1011.34C1269.36,1011.34 1285.56,1016.96 1298.92,1026.61ZM1128.33,484.953C1123.55,464.121 1108.93,446.923 1089.13,438.862C1069.34,430.802 1046.86,432.89 1028.89,444.457C987.607,471.461 961.5,510.87 961.5,554.75C961.5,635.744 1050.44,701.5 1160,701.5C1269.56,701.5 1358.5,635.744 1358.5,554.75C1358.5,510.87 1332.39,471.461 1291.04,444.56C1273.11,433.014 1250.67,430.93 1230.91,438.975C1211.15,447.02 1196.55,464.186 1191.78,484.978C1188.02,500.882 1185.21,513.105 1185.21,513.105C1182.52,524.857 1172.06,533.187 1160,533.187C1147.94,533.187 1137.49,524.857 1134.79,513.105C1134.79,513.105 1131.99,500.882 1128.33,484.953ZM1160,646L1205,600L1115,600L1160,646ZM1267.75,509C1285.96,509 1300.75,523.787 1300.75,542C1300.75,560.213 1285.96,575 1267.75,575C1249.54,575 1234.75,560.213 1234.75,542C1234.75,523.787 1249.54,509 1267.75,509ZM1052.25,509C1070.46,509 1085.25,523.787 1085.25,542C1085.25,560.213 1070.46,575 1052.25,575C1034.04,575 1019.25,560.213 1019.25,542C1019.25,523.787 1034.04,509 1052.25,509Z" style="fill:rgb(86,134,140);"/>
    </g>
</svg>
